<svg width="1000" height="1000" viewBox="0 0 1000 1000" fill="none" xmlns="http://www.w3.org/2000/svg">
<g clip-path="url(#clip0_279_48)">
<path d="M963.383 377.872L647.342 61.7883C608.227 22.7878 555.244 0.887207 500.008 0.887207C444.772 0.887207 391.79 22.7878 352.675 61.7883L36.6333 377.872C24.9844 389.446 15.7487 403.217 9.46175 418.388C3.17478 433.558 -0.0384542 449.825 0.00831581 466.247V875.288C0.00831581 908.44 13.1779 940.235 36.62 963.677C60.062 987.119 91.8563 1000.29 125.008 1000.29H875.008C908.16 1000.29 939.955 987.119 963.397 963.677C986.839 940.235 1000.01 908.44 1000.01 875.288V466.247C1000.06 449.825 996.842 433.558 990.555 418.388C984.268 403.217 975.032 389.446 963.383 377.872V377.872ZM625.008 916.955H375.008V753.038C375.008 719.886 388.178 688.092 411.62 664.65C435.062 641.208 466.856 628.038 500.008 628.038C533.16 628.038 564.955 641.208 588.397 664.65C611.839 688.092 625.008 719.886 625.008 753.038V916.955ZM916.675 875.288C916.675 886.339 912.285 896.937 904.471 904.751C896.657 912.565 886.059 916.955 875.008 916.955H708.342V753.038C708.342 697.785 686.392 644.794 647.322 605.724C608.252 566.654 555.262 544.705 500.008 544.705C444.755 544.705 391.765 566.654 352.694 605.724C313.624 644.794 291.675 697.785 291.675 753.038V916.955H125.008C113.958 916.955 103.36 912.565 95.5455 904.751C87.7315 896.937 83.3417 886.339 83.3417 875.288V466.247C83.3803 455.204 87.7662 444.621 95.55 436.788L411.592 120.83C435.079 97.452 466.869 84.3276 500.008 84.3276C533.147 84.3276 564.938 97.452 588.425 120.83L904.467 436.913C912.22 444.715 916.604 455.247 916.675 466.247V875.288Z" fill="#8A8A8E"/>
</g>
<defs>
<clipPath id="clip0_279_48">
<rect width="1000" height="1000" fill="white"/>
</clipPath>
</defs>
</svg>
