<svg width="24" height="24" viewBox="0 0 24 24" fill="none" xmlns="http://www.w3.org/2000/svg">
<g clip-path="url(#clip0_143_476)">
<path d="M21.0001 21.9493C21.0001 19.4641 18.9853 17.4493 16.5001 17.4493H10.8321V19.1293C10.8297 20.3521 9.83659 21.3414 8.61385 21.3391C8.00195 21.3379 7.41779 21.0835 7.00009 20.6363L0.778041 13.9414C-0.259021 12.8154 -0.259021 11.0823 0.778041 9.95637L7.00004 3.26135C7.8317 2.36501 9.23256 2.31256 10.1289 3.14421C10.5807 3.56342 10.8373 4.15198 10.837 4.76834V6.44932H14.5C19.7442 6.45542 23.994 10.7051 24.0001 15.9493V21.9493C24.0001 22.7778 23.3285 23.4493 22.5001 23.4493C21.6716 23.4493 21.0001 22.7778 21.0001 21.9493ZM21.0001 15.9493C20.9957 12.3613 18.0881 9.45373 14.5 9.44932H9.33207C8.50365 9.44932 7.83207 8.77774 7.83207 7.94932V6.74932L2.97704 11.9004L7.83203 17.1284V15.9494C7.83203 15.121 8.5036 14.4494 9.33203 14.4494H16.5001C18.1237 14.4474 19.7036 14.975 21.0001 15.9524V15.9493Z" fill="#8A8A8E"/>
</g>
<defs>
<clipPath id="clip0_143_476">
<rect width="24" height="24" fill="white"/>
</clipPath>
</defs>
</svg>
